<svg version="1.1" xmlns="http://www.w3.org/2000/svg" xmlns:xlink="http://www.w3.org/1999/xlink" viewBox="0 0 226 226"><g fill="none" fill-rule="nonzero" stroke="none" stroke-width="1" stroke-linecap="butt" stroke-linejoin="miter" stroke-miterlimit="10" stroke-dasharray="" stroke-dashoffset="0" font-family="none" font-weight="none" font-size="none" text-anchor="none" style="mix-blend-mode: normal"><path d="M0,226v-226h226v226z" fill="none"></path><g id="original-icon" fill="#ffffff"><path d="M74.04148,18.08c-30.85512,0 -55.96148,25.10636 -55.96148,55.96148v77.91703c0,30.85512 25.10636,55.96148 55.96148,55.96148h77.91703c30.85512,0 55.96148,-25.10636 55.96148,-55.96148v-77.91703c0,-30.85512 -25.10636,-55.96148 -55.96148,-55.96148zM74.04148,27.12h77.91703c25.97032,0 46.92148,20.95117 46.92148,46.92148v77.91703c0,25.97032 -20.95117,46.92148 -46.92148,46.92148h-77.91703c-25.97032,0 -46.92148,-20.95117 -46.92148,-46.92148v-77.91703c0,-25.97032 20.95117,-46.92148 46.92148,-46.92148zM168.15813,75.16266c-1.38065,-0.01356 -2.77742,0.34185 -4.05211,1.13883l-25.46031,15.90828c-3.06903,-8.86271 -11.28091,-15.36977 -21.15219,-15.36977h-58.73352c-2.49622,0.00025 -4.51975,2.02378 -4.52,4.52v45.17352c0,12.44078 10.1857,22.62648 22.62648,22.62648h58.73352c2.49622,-0.00025 4.51975,-2.02378 4.52,-4.52v-14.45164l23.98602,14.99016c5.09876,3.18798 12.17398,-0.73109 12.17398,-6.74469v-55.38766c0,-4.5102 -3.97992,-7.84341 -8.12187,-7.88352zM167.24,84.99719v51.48562l-27.12,-16.95v-17.58562zM63.28,85.88h54.21352c7.5557,0 13.58648,6.03079 13.58648,13.58648v22.57352v18.08h-54.21352c-7.5557,0 -13.58648,-6.03079 -13.58648,-13.58648z"></path></g></g></svg>